<?xml version="1.0" encoding="UTF-8" standalone="no"?>
<svg width="85px" height="85px" viewBox="0 0 85 85" version="1.1" xmlns="http://www.w3.org/2000/svg" xmlns:xlink="http://www.w3.org/1999/xlink" xmlns:sketch="http://www.bohemiancoding.com/sketch/ns">
    <!-- Generator: Sketch 3.3 (11970) - http://www.bohemiancoding.com/sketch -->
    <title>ball</title>
    <desc>Created with Sketch.</desc>
    <defs></defs>
    <g id="index.html" stroke="none" stroke-width="1" fill="none" fill-rule="evenodd" sketch:type="MSPage">
        <g id="Mobile-Portrait" sketch:type="MSArtboardGroup" transform="translate(-195.000000, -577.000000)" stroke="#B60050" stroke-width="4" fill="#FFFFFF">
            <g id="Group" sketch:type="MSLayerGroup" transform="translate(-27.000000, -147.000000)">
                <g id="ball" transform="translate(224.500000, 725.283951)" sketch:type="MSShapeGroup">
                    <path d="M69.513041,68 C76.0261031,60.8846411 80,51.4063972 80,41 C80,31.847836 76.9262865,23.4135762 71.7548395,16.6732006 L71.7548395,16.6732006 C64.4435061,26.2026675 52.939226,32.3464013 40,32.3464013 C27.060774,32.3464013 15.5564939,26.2026675 8.24516054,16.6732006 C3.07371348,23.4135762 0,31.847836 0,41 C0,51.4063972 3.97389689,60.8846411 10.486959,68 C17.8002569,60.0104033 28.3150073,55 40,55 C51.6849927,55 62.1997431,60.0104033 69.513041,68 Z" id="Oval-1-Copy-3"></path>
                    <path d="M71.7548395,16.6732006 C64.4435061,7.1437338 52.939226,1 40,1 C27.060774,1 15.5564939,7.1437338 8.24516054,16.6732006 C15.5564939,26.2026675 27.060774,32.3464013 40,32.3464013 C52.939226,32.3464013 64.4435061,26.2026675 71.7548395,16.6732006 Z" id="Oval-1-Copy-7"></path>
                    <path d="M69.513041,68 C62.1997431,75.9895967 51.6849927,81 40,81 C28.3150073,81 17.8002569,75.9895967 10.486959,68 C17.8002569,60.0104033 28.3150073,55 40,55 C51.6849927,55 62.1997431,60.0104033 69.513041,68 Z" id="Oval-1-Copy-10"></path>
                </g>
            </g>
        </g>
    </g>
</svg>