<?xml version="1.0" encoding="UTF-8" standalone="no"?>
<svg width="96px" height="81px" viewBox="0 0 96 81" version="1.1" xmlns="http://www.w3.org/2000/svg" xmlns:xlink="http://www.w3.org/1999/xlink" xmlns:sketch="http://www.bohemiancoding.com/sketch/ns">
    <!-- Generator: Sketch 3.3 (11970) - http://www.bohemiancoding.com/sketch -->
    <title>dog</title>
    <desc>Created with Sketch.</desc>
    <defs></defs>
    <g id="index.html" stroke="none" stroke-width="1" fill="none" fill-rule="evenodd" sketch:type="MSPage">
        <g id="Mobile-Portrait" sketch:type="MSArtboardGroup" transform="translate(-196.000000, -413.000000)">
            <g id="Group" sketch:type="MSLayerGroup" transform="translate(-27.000000, -147.000000)">
                <g id="dog" transform="translate(223.000000, 561.000000)" sketch:type="MSShapeGroup">
                    <path d="M88.3927585,13.4142848 C90.7441018,14.1233966 94.4434432,13.4777577 95.9998133,14.9872236 C95.4872777,21.6618001 89.5955877,22.9352259 82.7993069,23.3011871 C80.6839867,28.0001683 77.8951613,33.1930482 78.7721007,40.1532529 C78.3997965,42.4779494 75.5981329,43.5569894 74.2975369,45.9957388 C73.5598413,47.3762753 73.1608733,49.6831199 72.2829463,51.6130941 C71.3941563,53.5678623 70.5942453,55.0644352 70.2703308,57.0053187 C69.5790497,61.135027 69.0596013,66.4736964 69.5988006,70.2622375 C70.1577507,74.1945846 73.0443431,75.149654 74.9680796,78.1269316 C74.4367807,79.7653269 71.3191029,80.0023586 69.374628,79.4747398 C66.9373683,78.0277551 67.7955444,73.2712516 64.6758916,72.5095763 C65.719726,66.8108963 64.573187,59.4708458 63.1096461,53.8594411 C57.1922799,53.9090293 51.4378586,53.2693411 46.1061062,51.6130941 C42.3593626,50.4487623 34.8885891,45.4701035 29.996294,48.6913552 C29.0304755,49.3290599 27.8908492,51.6359046 26.640618,52.9609023 C25.2659562,54.4148293 23.2375399,55.8161929 21.4935365,57.2304493 C17.9245509,60.1214434 14.8473625,61.6656211 13.8874693,66.6651069 C13.1092843,70.7134905 15.7243019,70.8325022 17.2431452,73.4081151 C16.4442218,74.4018634 15.1841151,74.934441 13.4401117,74.9800622 C13.380859,75.7625645 14.2143465,76.9447481 13.2159391,77.901801 C11.4077452,78.4790081 8.75816353,78.4790081 6.95095723,77.901801 C7.71926679,72.7654516 5.2632438,64.5714917 7.62149989,61.0477517 C7.9839287,60.5082317 8.54880411,60.275167 8.96456031,59.9260658 C12.6500761,56.8198587 15.158439,50.9743976 13.6632967,43.074 C12.9976917,44.4277588 13.3334569,46.787167 12.7685814,48.2420858 C10.0962862,54.0359752 7.64125078,61.9581917 0.0144451731,63.5212128 C2.75784359,59.3706776 5.75800356,56.5292717 7.62149989,51.6130941 C9.78915991,45.8965623 8.94085924,35.6208882 12.7685814,31.3880365 C16.3395421,27.4427965 22.1877802,25.1706636 27.7595058,24.6489953 C35.1888026,23.9517848 43.4545494,26.0166389 51.4753852,25.3233953 C54.8587124,25.0308248 60.1035609,23.6939259 62.8854735,22.1775177 C65.6535606,20.6670601 67.3027598,17.7512718 69.374628,14.7611013 C70.4954909,13.1455166 74.0496633,8.61711894 76.0869674,7.79692953 C81.2854013,5.70133071 87.435828,8.79067776 88.3927585,13.4142848" id="Fill-5-Copy" fill="#FFFFFF"></path>
                    <path d="M63.3191495,18.4615385 L31.0879645,0.837480645" id="Line" stroke="#FFFFFF" stroke-width="2.05128205" stroke-linecap="square"></path>
                    <path d="M65.2005449,18.183075 C65.5877995,17.5408873 66.3714893,17.3747082 66.9326585,17.7980918 L81.1537975,28.5274707 C81.7231628,28.9570379 81.8767368,29.8160097 81.483538,30.4680546 L80.1071985,32.7504502 C79.7199438,33.3926378 78.9362541,33.5588169 78.3750849,33.1354334 L64.1539459,22.4060545 C63.5845806,21.9764872 63.4310066,21.1175154 63.8242053,20.4654705 L65.2005449,18.183075 L65.2005449,18.183075 Z" id="Rectangle-17" fill="#B60050"></path>
                </g>
            </g>
        </g>
    </g>
</svg>