<?xml version="1.0" encoding="UTF-8" standalone="no"?>
<svg width="31px" height="30px" viewBox="0 0 31 30" version="1.1" xmlns="http://www.w3.org/2000/svg" xmlns:xlink="http://www.w3.org/1999/xlink" xmlns:sketch="http://www.bohemiancoding.com/sketch/ns">
    <!-- Generator: Sketch 3.3 (11970) - http://www.bohemiancoding.com/sketch -->
    <title>facebook</title>
    <desc>Created with Sketch.</desc>
    <defs></defs>
    <g id="index.html" stroke="none" stroke-width="1" fill="none" fill-rule="evenodd" sketch:type="MSPage">
        <g id="Mobile-Portrait" sketch:type="MSArtboardGroup" transform="translate(-37.000000, -2621.000000)" fill="#FFFFFF">
            <g id="Group" sketch:type="MSLayerGroup" transform="translate(-27.000000, -147.000000)">
                <path d="M64.5,2773.00444 C64.5,2770.24056 66.7303666,2768 69.5044356,2768 L89.4955644,2768 C92.2594379,2768 94.5,2770.23037 94.5,2773.00444 L94.5,2792.99556 C94.5,2795.75944 92.2696334,2798 89.4955644,2798 L69.5044356,2798 C66.7405621,2798 64.5,2795.76963 64.5,2792.99556 L64.5,2773.00444 Z M86.73875,2778.83086 L83.2347917,2778.83086 L83.2347917,2776.37502 C83.2347917,2775.45273 83.8067917,2775.23771 84.2096667,2775.23771 L86.682375,2775.23771 L86.682375,2771.18318 L83.2769583,2771.16898 C79.496625,2771.16898 78.6363333,2774.19298 78.6363333,2776.12816 L78.6363333,2778.83086 L76.4500833,2778.83086 L76.4500833,2783.00882 L78.6363333,2783.00882 L78.6363333,2794.83102 L83.2347917,2794.83102 L83.2347917,2783.00882 L86.3377083,2783.00882 L86.73875,2778.83086 Z" id="facebook" sketch:type="MSShapeGroup"></path>
            </g>
        </g>
    </g>
</svg>