<?xml version="1.0" encoding="UTF-8" standalone="no"?>
<svg width="80px" height="66px" viewBox="0 0 80 66" version="1.1" xmlns="http://www.w3.org/2000/svg" xmlns:xlink="http://www.w3.org/1999/xlink" xmlns:sketch="http://www.bohemiancoding.com/sketch/ns">
    <!-- Generator: Sketch 3.3 (11970) - http://www.bohemiancoding.com/sketch -->
    <title>food bowl</title>
    <desc>Created with Sketch.</desc>
    <defs></defs>
    <g id="index.html" stroke="none" stroke-width="1" fill="none" fill-rule="evenodd" sketch:type="MSPage">
        <g id="Mobile-Portrait" sketch:type="MSArtboardGroup" transform="translate(-40.000000, -428.000000)">
            <g id="Group" sketch:type="MSLayerGroup" transform="translate(-27.000000, -147.000000)">
                <g id="food-bowl" transform="translate(67.000000, 576.049383)" sketch:type="MSShapeGroup">
                    <path d="M79.3262573,46.9304331 C79.7687036,47.8218086 80,48.7409341 80,49.6802721 C80,57.9457582 62.09139,64.6462585 40,64.6462585 C17.90861,64.6462585 0,57.9457582 0,49.6802721 C0,48.7479554 0.22785156,47.8355501 0.663856603,46.9504261 L6.97033691,21.0175361 L72.9772949,21.0175361 L79.3262573,46.9304331 Z" id="Oval-1-Copy" fill="#FFFFFF"></path>
                    <path d="M32.1568627,50.1220488 C32.1568627,53.1542004 29.6486541,55.6122449 26.5546218,55.6122449 C23.4605896,55.6122449 20.952381,53.1542004 20.952381,50.1220488 C20.952381,48.6257215 21.5632035,47.2692061 22.5538192,46.2789116 C21.5632035,45.2886171 20.952381,43.9321017 20.952381,42.4357743 C20.952381,39.4036227 23.4605896,36.9455782 26.5546218,36.9455782 C29.6486541,36.9455782 32.1568627,39.4036227 32.1568627,42.4357743 L47.8431373,42.4357743 C47.8431373,39.4036227 50.3513459,36.9455782 53.4453782,36.9455782 C56.5394104,36.9455782 59.047619,39.4036227 59.047619,42.4357743 C59.047619,43.9321017 58.4367965,45.2886171 57.4461808,46.2789116 L57.4461808,46.2789116 C58.4367965,47.2692061 59.047619,48.6257215 59.047619,50.1220488 C59.047619,53.1542004 56.5394104,55.6122449 53.4453782,55.6122449 C50.3513459,55.6122449 47.8431373,53.1542004 47.8431373,50.1220488 L32.1568627,50.1220488 L32.1568627,50.1220488 Z" id="Oval-6" fill="#B60050"></path>
                    <path d="M9.29492884,18.4798192 C9.28502319,18.3891545 9.28,18.2971832 9.28,18.2039053 C9.28,11.5449045 15.0107552,6.1467178 22.08,6.1467178 C23.4356118,6.1467178 24.7420038,6.34522329 25.9682036,6.71305923 L25.9682036,6.71305923 C28.0618237,2.74060286 32.4124121,0.0102347779 37.44,0.0102347779 C43.7276447,0.0102347779 48.9564138,4.28072609 50.0357734,9.91052542 C52.2089451,8.30781491 54.9460287,7.35243655 57.92,7.35243655 C64.6487638,7.35243655 70.1648662,12.2431523 70.6806091,18.4566941 C71.539082,19.264203 72,20.1194755 72,21.0048149 C72,25.9408006 57.673112,29.9422076 40,29.9422076 C22.326888,29.9422076 8,25.9408006 8,21.0048149 C8,20.1279221 8.45216521,19.2805251 9.29492884,18.4798192 Z" id="Oval-3" stroke="#FFFFFF" stroke-width="2" fill="#B60050"></path>
                </g>
            </g>
        </g>
    </g>
</svg>