<?xml version="1.0" encoding="UTF-8" standalone="no"?>
<svg width="80px" height="79px" viewBox="0 0 80 79" version="1.1" xmlns="http://www.w3.org/2000/svg" xmlns:xlink="http://www.w3.org/1999/xlink" xmlns:sketch="http://www.bohemiancoding.com/sketch/ns">
    <!-- Generator: Sketch 3.3 (11970) - http://www.bohemiancoding.com/sketch -->
    <title>horse shoe</title>
    <desc>Created with Sketch.</desc>
    <defs></defs>
    <g id="index.html" stroke="none" stroke-width="1" fill="none" fill-rule="evenodd" sketch:type="MSPage">
        <g id="Mobile-Portrait" sketch:type="MSArtboardGroup" transform="translate(-196.000000, -728.000000)">
            <g id="Group" sketch:type="MSLayerGroup" transform="translate(-27.000000, -147.000000)">
                <g id="horse-shoe" transform="translate(223.000000, 874.333333)" sketch:type="MSShapeGroup">
                    <g id="Oval-21-+-Oval-21-Copy-2">
                        <path d="M69.599347,0.760402786 C76.061192,9.06995266 80,20.1113492 80,32.2287199 C80,58.066603 62.09139,79.0123457 40,79.0123457 C17.90861,79.0123457 0,58.066603 0,32.2287199 C0,20.3638767 3.77634822,9.53062803 9.99995632,1.28346327 L20.3526419,10.31909 C15.7940649,16.0382675 13,23.7474763 13,32.2287199 C13,49.8697573 25.0883118,64.1706437 40,64.1706437 C54.9116882,64.1706437 67,49.8697573 67,32.2287199 C67,23.4926736 64.0355286,15.5757476 59.2317471,9.80904641 L69.599347,0.760402786 Z" id="Oval-21" fill="#FFFFFF"></path>
                        <path d="M13.2763672,6.98144528 C8.91545846,13.8408291 7,22.1635878 7,31.5348816 C7,53.8831494 21.7746033,72 40,72 C58.2253967,72 73,53.8831494 73,31.5348816 C73,22.0709785 69.7770012,12.3742044 65.3378906,5.48242185" id="Oval-21-Copy-2" stroke="#B60050" stroke-width="2" stroke-dasharray="11,2"></path>
                    </g>
                </g>
            </g>
        </g>
    </g>
</svg>