<?xml version="1.0" encoding="UTF-8" standalone="no"?>
<svg width="123px" height="101px" viewBox="0 0 123 101" version="1.1" xmlns="http://www.w3.org/2000/svg" xmlns:xlink="http://www.w3.org/1999/xlink" xmlns:sketch="http://www.bohemiancoding.com/sketch/ns">
    <!-- Generator: Sketch 3.3 (11970) - http://www.bohemiancoding.com/sketch -->
    <title>logo</title>
    <desc>Created with Sketch.</desc>
    <defs>
        <path id="path-1" d="M0,0.35996094 L122.263985,0.35996094 L122.263985,100.414636 L0,100.414636"></path>
    </defs>
    <g id="index.html" stroke="none" stroke-width="1" fill="none" fill-rule="evenodd" sketch:type="MSPage">
        <g id="Mobile-Portrait" sketch:type="MSArtboardGroup" transform="translate(-97.000000, -76.000000)">
            <g id="Group" sketch:type="MSLayerGroup" transform="translate(-27.000000, -147.000000)">
                <g id="Header" transform="translate(0.000000, 147.000000)">
                    <g id="logo" transform="translate(124.500000, 75.805085)">
                        <path d="M110.597866,0.360216231 C109.20442,1.89281588 107.0558,2.70889754 105.574464,4.15810198 C105.425136,4.30446908 105.125626,4.24064622 104.941313,4.26957925 C104.701534,4.30617102 104.454076,4.40147983 104.221977,4.47040852 C102.07677,5.11033908 99.8240473,5.24904743 97.6532414,5.78260655 C95.1266077,6.4021138 92.2569457,6.88972046 89.8327085,7.78834635 C89.2456352,8.00534408 88.7950906,8.4793352 88.2148437,8.71079945 C87.6277704,8.94481661 87.0074183,9.04608221 86.4229049,9.30477755 C85.0721243,9.90386147 84.0123205,11.0679905 82.6990854,11.769191 C80.8337624,12.7648276 78.9070015,13.7060021 77.2575645,15.0462822 C75.5748487,16.4137934 73.8221618,17.288592 72.0507023,18.5054813 C69.4967629,20.2593335 66.6288075,21.2975187 64.0569486,22.9849952 C62.3153548,24.1287009 60.9867601,25.3089983 58.8586195,25.6357714 C56.8089828,25.9497799 54.7107078,26.1199742 52.6380319,25.9599915 C47.3688785,25.5523762 42.6040279,23.1271074 37.3835128,22.4939846 C31.2977473,21.7553414 25.8937718,21.22859 20.2210055,24.064878 C17.3846224,25.4834475 15.1037402,28.1623057 11.9524879,28.8881844 C11.0351858,29.0992253 9.91309083,28.8762708 9.08197254,29.2804823 C8.98981569,29.3255838 9.1143981,29.5493893 8.93008439,29.6038514 C8.15016436,29.8327628 7.27723417,31.1602783 6.75245209,32.0529474 C5.27452922,34.5650152 3.17625421,36.5018263 2.23079316,39.3551337 C1.22816073,42.3803374 1.26655942,46.1118473 0.792975589,49.2800142 C0.497732337,51.2602248 1.3237308,53.2710705 1.01227477,55.1780976 C1.1206444,54.7645254 1.33567706,54.3671217 1.70259786,54.1569318 C1.81864723,54.7806939 1.42783391,55.4767886 1.30666471,56.0835312 C1.18464221,56.7030385 1.16501622,57.284252 1.17696248,57.911418 C1.2025616,59.2363806 1.2827722,60.538367 1.64115996,61.820781 C1.6906516,61.2923277 2.02344024,60.5630451 2.59344744,60.477948 C2.41340026,61.461671 1.88008513,62.2479687 1.81523401,63.2895578 C1.74014325,64.4919805 1.79646132,65.582075 2.19068786,66.7181219 C2.56614171,67.7997067 3.3981133,69.5944056 3.22915907,70.74577 C3.33923531,69.9960641 3.63618517,68.7868336 4.05942405,68.1545618 C3.78636671,69.2948636 4.01163901,70.8232084 4.24373775,71.9592553 C4.5577537,73.4944079 4.85129034,75.1742256 5.28732879,76.6659786 C6.60824368,75.3282514 6.18159158,72.834054 6.25838896,71.1567892 C6.86252833,72.2324172 6.50584718,73.787993 6.60483046,75.0065842 C7.57162412,72.3379376 7.8941731,69.9050101 7.37963067,67.1214824 C7.23883548,66.3615649 7.29515356,64.3234882 6.85911511,63.7337649 C7.6910867,64.8561963 7.72265896,66.0867011 8.07166037,67.3852836 C8.51025873,66.1283987 9.16730296,64.895341 9.36100301,63.5652726 C9.59310175,61.9722539 8.98298925,60.3069027 9.00176195,58.6985666 C9.57774228,59.6533566 10.0299935,60.5851704 10.2612389,61.6897314 C10.6093871,60.2294643 10.367902,58.4458281 10.1375098,56.9779023 C10.0359666,56.329462 9.83544015,55.7218683 9.79704146,55.0496009 C9.7850952,54.8402619 10.0129274,53.0379043 10.0103675,53.0353514 C10.4958976,53.4540293 10.7041038,54.1637396 10.8594052,54.9287629 C11.5394886,52.6064617 10.8312461,48.62817 10.8022338,46.4726592 C11.7656142,46.6079637 11.9123826,47.8571899 12.135095,48.5124379 C12.4200986,49.3506448 12.7281414,50.2016163 13.0003454,51.044929 C13.5370737,52.7060254 14.5311731,54.569653 14.5746916,56.2715959 C14.5909044,56.9225891 14.4142705,57.4008351 14.3084607,58.3522212 C13.8783954,62.1849968 12.6274515,64.1992463 11.1700079,67.0508518 C10.6128003,68.1400953 9.51203786,69.3927253 9.67331235,71.0784998 C9.75096303,71.8911776 10.6605853,73.0365852 10.8704981,74.0798763 C10.9703347,74.5768436 10.8483122,75.1401867 10.9114567,75.6737459 C11.0283594,76.6761903 11.5019432,77.7160774 11.6282323,78.6887378 C11.9337152,81.0340153 11.5079164,83.4107786 11.9687006,85.7015939 C12.0378183,86.2283452 12.4653237,86.3806691 12.7921392,86.6385135 C12.2605307,88.1923874 12.3390347,89.8049784 12.6965691,91.3886363 C12.8919758,92.2532234 13.4201711,93.0190977 13.9662858,93.6922162 C14.3519793,94.1696112 15.1574984,94.8410277 15.0013437,95.5320165 C14.8733481,96.1013164 14.1514528,96.4876575 13.9918849,97.1309919 C13.8092778,97.8679333 13.9987113,98.6976305 14.6369829,99.1690687 C15.5150329,99.8175089 16.5671569,100.065142 17.6346405,99.8889905 C18.0143609,99.8268696 18.4666121,99.7204982 18.8079338,99.5443471 C19.1330427,99.3767057 19.4521784,98.8422956 19.8336054,98.8065548 C20.4292117,98.7520926 20.9241282,99.247358 21.5854389,99.0958851 C22.7126538,98.8371898 24.2417749,97.993877 24.9175918,97.0492987 C25.2819527,96.5412687 25.4125082,96.023878 25.1795562,95.4316019 C24.9141786,94.7542286 23.9209325,94.4410711 23.6999267,93.8607085 C22.909767,91.7843381 21.3379807,91.1129216 21.1741463,88.9778341 C21.1246546,88.3344997 21.4890155,87.3950271 21.4446437,87.0554895 C21.3524869,86.3491832 20.7193352,85.5722462 20.5836598,84.683832 C20.410439,83.5528909 20.6203519,82.2772846 20.4932095,81.1752765 C20.2935364,79.4435496 19.7841138,77.7262891 20.0307187,75.6014133 C20.1885799,74.2398589 20.9514339,72.6876869 21.515468,71.0955193 C22.2800285,68.9366046 23.0889609,67.5010157 24.2639608,65.9190597 C25.6702061,64.0230952 26.2803186,61.7195154 27.2078603,59.5852789 C28.2744905,57.134481 29.888942,55.3065943 31.8831139,53.5450833 C34.486545,51.2466093 36.9875796,52.8175027 39.6456222,54.1952255 C43.1160104,55.9933283 46.8253237,57.463807 50.6839653,58.1624546 C53.1858532,58.6160224 55.7397926,58.6679316 58.2741061,58.5539015 C60.4918437,58.4534868 62.815391,57.9633272 65.0322753,58.1760701 C66.0553871,58.2739318 67.7688219,58.6407006 69.5180955,58.3811542 C69.9549872,62.4709232 69.3610875,66.356459 69.0248857,70.3636838 C68.9020098,71.8350135 68.2637383,73.1659329 68.1715815,74.534295 C68.1016105,75.58099 68.5623948,76.6115164 68.5734877,77.7160774 C68.5837274,78.8087248 67.9352162,79.8290396 67.6954377,80.9293458 C67.6263201,81.2476091 67.7969809,81.609272 67.7201835,81.8866887 C67.6365597,82.1921875 67.3592359,82.7504248 67.2687856,83.0150769 C67.0665525,83.6073531 67.0068212,84.0600699 66.8259207,84.4634304 C66.4615598,85.2735552 66.1347443,86.5074639 65.6202019,87.3669451 C64.8795339,90.7572155 67.0017014,91.5596816 68.01884,93.5288296 C67.1894283,94.3729933 66.467533,95.7200812 66.6697661,97.0739769 C67.7995408,97.3624562 68.2133934,98.4014924 69.1170425,98.9273928 C69.9396277,98.6899717 72.0182768,99.2099153 72.7871038,98.5138206 C74.1063121,99.0899283 75.087612,100.192787 76.5143366,100.334049 C77.3369218,100.416593 80.0538424,100.598701 80.5666782,99.8421871 C80.8593615,99.4107446 80.436976,98.7963431 80.2594887,98.3980885 C80.0615221,97.9538814 79.6340167,96.1685432 79.2824554,95.9540984 C78.1953458,95.2945955 77.5681673,94.1517408 76.9657345,92.980804 C77.214046,91.8839017 77.1577279,90.1785549 76.5561485,89.4807583 C76.2762647,89.1565381 76.5868674,86.8001981 76.5621216,86.2845094 C76.5092167,85.1850542 76.4546053,84.0838971 76.5698013,82.9861439 C76.6687846,82.0475223 76.8539516,81.2739892 77.4760104,80.5574712 C78.0280982,79.9200936 78.4948556,79.430785 78.7056217,78.5619431 C78.7875389,78.2172996 78.8950553,77.7543712 78.8754293,77.401218 C78.863483,77.1995377 78.4428041,76.4021775 78.4598701,76.3460133 C79.127154,74.1862477 78.8609231,71.2316747 79.6946013,68.3358187 C80.3106869,66.1973274 81.5164058,63.7771645 81.9174587,61.4174205 C82.1171319,60.2473347 81.8022627,58.9717285 82.1478509,57.9003554 C82.5804761,56.5566714 84.0660787,55.8775961 85.0729777,55.0113072 C86.3879194,53.8795151 87.2540232,52.8523925 87.8624291,51.2304408 C88.2967609,50.0705667 88.888954,49.2068306 88.9631915,47.9176088 C89.1108131,45.4029881 88.4136636,42.7768901 89.2183294,40.3235393 C89.8164957,38.4999074 90.7901158,37.1468627 91.6587794,35.6338354 C93.2160596,32.9200873 94.8851226,29.229424 96.5388261,26.2527257 C97.4083431,24.6877891 98.5585972,22.8854315 99.635467,22.184231 C102.28327,20.4593118 102.693709,22.5892934 104.789424,23.4887703 C105.968691,23.9950983 107.408215,24.1797592 108.665132,24.4273919 C110.07735,24.7065105 111.550154,25.0885967 112.727713,25.9497799 C114.001696,26.8815936 115.15707,28.0389149 116.500171,28.8737179 C117.569361,29.5391776 119.102749,29.4710999 120.305908,29.4770567 C120.991964,29.0890137 121.42971,28.4669535 122.027876,27.9972173 C122.273627,25.7625661 122.619216,23.855539 121.342672,21.8540541 C119.679583,19.2483794 116.914024,17.498782 115.458287,14.842049 C115.15707,14.2914705 114.819162,13.7587623 114.4804,13.23116 C114.239768,12.8558816 113.294307,11.8772644 113.283214,11.4628412 C113.272121,11.0373555 113.261882,10.6118698 113.250789,10.187235 C112.372739,8.40359874 109.911809,7.6972924 109.614006,5.65155695 C109.338389,3.77005898 111.196032,2.53444838 110.597866,0.360216231" id="Fill-1" fill="#B70050" sketch:type="MSShapeGroup"></path>
                        <path d="M10.0179619,65.8031574 C9.43942167,66.3018267 10.5171449,66.3282068 10.0179619,65.8031574" id="Fill-3" fill="#B70050" sketch:type="MSShapeGroup"></path>
                        <g id="Group-7" transform="translate(0.000000, 0.000000)">
                            <mask id="mask-2" sketch:name="Clip 6" fill="white">
                                <use xlink:href="#path-1"></use>
                            </mask>
                            <g id="Clip-6"></g>
                            <path d="M76.3644964,41.7200686 C78.3962136,42.3285132 81.5926912,41.7745308 82.9374986,43.0697094 C82.4946337,48.7967475 77.4038209,49.8893949 71.5313814,50.2034033 C69.7036038,54.2353063 67.2938728,58.690993 68.0516069,64.6631109 C67.7299112,66.657788 65.3090872,67.583645 64.1852856,69.6761839 C63.5478673,70.8607362 63.2031324,72.8400959 62.444545,74.4960864 C61.6765712,76.1733512 60.9853948,77.4574672 60.7055111,79.1228184 C60.1081981,82.6662637 59.6593601,87.2470432 60.1252642,90.4977543 C60.6082344,93.8718562 63.1024426,94.6913418 64.7646791,97.2459582 C64.3056015,98.6517631 61.6117201,98.8551453 59.9315642,98.4024284 C57.8256094,97.160861 58.5671308,93.0796018 55.8715428,92.4260557 C56.7734853,87.5363735 55.7827992,81.2383335 54.5182023,76.4235368 C49.4052036,76.4660854 44.4330001,75.9172088 39.8260107,74.4960864 C36.5885746,73.4970459 30.1333284,69.225169 25.9060594,71.9891244 C25.0715279,72.5362991 24.0868148,74.5156588 23.0065317,75.6525567 C21.8187323,76.9000809 20.0660455,78.1025036 18.5591103,79.3159889 C15.4752689,81.7965708 12.816373,83.1215334 11.9869613,87.4112807 C11.3145576,90.8849463 13.5741071,90.9870629 14.886489,93.1970358 C14.1961659,94.0497093 13.1073498,94.506681 11.6004145,94.5458257 C11.5492163,95.2172422 12.269405,96.2316002 11.4067145,97.0527877 C9.84431451,97.5480531 7.55489935,97.5480531 5.99335268,97.0527877 C6.65722334,92.6456063 4.53505581,85.6148799 6.57274622,82.5913782 C6.88590886,82.1284497 7.37399886,81.9284714 7.73323993,81.6289294 C10.9177712,78.9636867 13.0851638,73.9480608 11.7932613,67.1692219 C11.2181343,68.330798 11.5082577,70.3552592 11.0201677,71.6036343 C8.71112654,76.5750098 6.58981231,83.37257 -0.000255991259,84.7137011 C2.37022306,81.1523854 4.96256121,78.7143521 6.57274622,74.4960864 C8.44574893,69.5910868 7.71276063,60.7741712 11.0201677,57.1422249 C14.1057157,53.7570603 19.1589831,51.8074846 23.9733254,51.3598736 C30.3927328,50.7616406 37.534889,52.5333633 44.4654256,51.9385342 C47.3888458,51.6874976 51.9207444,50.5403881 54.3245023,49.2392526 C56.716314,47.9432231 58.141332,45.4413669 59.9315642,42.8756879 C60.9000644,41.4894553 63.9711062,37.6039195 65.7314728,36.9001661 C70.2232661,35.1020633 75.5376446,37.7528395 76.3644964,41.7200686" id="Fill-5" fill="#ED2B74" sketch:type="MSShapeGroup" mask="url(#mask-2)"></path>
                        </g>
                        <path d="M41.6636013,64.4769183 C40.8811214,65.1857776 41.4289426,67.2204504 40.8640553,68.1471583 C40.4177772,68.5292445 40.0269639,67.50042 39.2632566,67.6680614 C39.3340808,69.3436243 38.3792335,70.9945089 38.4637106,73.0930046 C38.5208819,74.4911508 39.9595528,75.4944462 39.584099,76.7615427 C39.2717896,77.8141944 34.332865,79.2455285 33.3447387,80.1118175 C31.2345174,81.9626805 26.6633669,89.8801192 27.1053784,93.6728991 C27.196682,94.4489851 27.8144742,96.212198 28.3853347,97.0231739 C29.9656541,99.2688876 33.1117867,98.5744949 36.3842082,98.2996311 C40.7300865,97.9328624 44.7696286,98.2528277 47.1025622,100.3743 C46.6733502,98.2485728 44.9095705,97.4546164 43.1039788,96.7040595 C43.9589896,96.1602888 45.5495486,97.5235451 47.1025622,96.8640422 C47.4208447,96.0105178 48.3637458,95.7816065 48.7025076,94.9493563 C48.5932847,93.7290632 47.5710262,93.4184586 46.4625841,93.1938022 C46.3448281,91.1361531 45.497497,89.4410179 45.8226059,87.7705609 C46.28851,85.379331 50.5976962,82.8289694 49.3424858,78.9953429 C49.0259099,78.0294902 47.1588803,76.9964108 47.1025622,75.8050508 C47.0360045,74.3924381 48.9712984,74.0435398 49.5020536,73.0930046 C49.3697915,71.8046338 49.8356956,70.8804788 49.3424858,70.0609932 C46.9344613,70.0431228 46.4037061,67.1293964 43.2635467,67.3489471 C42.6141822,66.5073363 42.3086993,65.321933 41.6636013,64.4769183 L42.373552,86.446417" id="Fill-8" fill="#F06D9A" sketch:type="MSShapeGroup"></path>
                    </g>
                </g>
            </g>
        </g>
    </g>
</svg>