<?xml version="1.0" encoding="UTF-8" standalone="no"?>
<svg width="80px" height="81px" viewBox="0 0 80 81" version="1.1" xmlns="http://www.w3.org/2000/svg" xmlns:xlink="http://www.w3.org/1999/xlink" xmlns:sketch="http://www.bohemiancoding.com/sketch/ns">
    <!-- Generator: Sketch 3.3 (11970) - http://www.bohemiancoding.com/sketch -->
    <title>medication</title>
    <desc>Created with Sketch.</desc>
    <defs></defs>
    <g id="index.html" stroke="none" stroke-width="1" fill="none" fill-rule="evenodd" sketch:type="MSPage">
        <g id="Mobile-Portrait" sketch:type="MSArtboardGroup" transform="translate(-191.000000, -1051.000000)">
            <g id="Group" sketch:type="MSLayerGroup" transform="translate(-27.000000, -147.000000)">
                <g id="medication" transform="translate(218.000000, 1198.000000)" sketch:type="MSShapeGroup">
                    <ellipse id="Oval-23" fill="#FFFFFF" cx="17.2716472" cy="47.5" rx="17.2716472" ry="17.4071247"></ellipse>
                    <ellipse id="Oval-23-Copy-4" fill="#FFFFFF" cx="36" cy="17.2716472" rx="17.2716472" ry="17.2716472"></ellipse>
                    <g id="Oval-23-Copy-+-Oval-23-Copy-3" transform="translate(54.675157, 43.121238) rotate(-242.000000) translate(-54.675157, -43.121238) translate(13.080918, 31.628093)">
                        <path d="M10.4246214,1.09458525 C4.66726198,1.09458525 -7.77749596e-15,5.76184722 -7.77749596e-15,11.5192066 C-7.77749596e-15,17.2765661 4.66726198,21.943828 10.4246214,21.943828 L71.6692721,21.943828 C77.4266315,21.943828 82.0938935,17.2765661 82.0938935,11.5192066 C82.0938935,5.76184722 77.4266315,1.09458525 71.6692721,1.09458525 L10.4246214,1.09458525 Z" id="Oval-23-Copy" stroke="#FFFFFF" stroke-width="2" fill="#B60050"></path>
                        <path d="M71.7605298,1.09458525 C77.5252202,1.09458525 82.1984251,5.76779013 82.1984251,11.5324805 C82.1984251,17.2971709 77.5252202,21.9703757 71.7605298,21.9703757 L40.4468441,21.9703757 L40.4468441,1.09458525 L71.7605298,1.09458525 Z" id="Oval-23-Copy-3" fill="#FFFFFF"></path>
                    </g>
                    <path d="M17.2716472,61.9058963 C25.1658822,61.9058963 31.5654242,55.4561568 31.5654242,47.5 C31.5654242,39.5438432 25.1658822,33.0941037 17.2716472,33.0941037 C9.37741214,33.0941037 2.9778702,39.5438432 2.9778702,47.5 C2.9778702,55.4561568 9.37741214,61.9058963 17.2716472,61.9058963 L17.2716472,61.9058963 Z M17.2716472,60.7054049 C10.0352651,60.7054049 4.16901828,54.7931437 4.16901828,47.5 C4.16901828,40.2068563 10.0352651,34.2945951 17.2716472,34.2945951 C24.5080293,34.2945951 30.3742761,40.2068563 30.3742761,47.5 C30.3742761,54.7931437 24.5080293,60.7054049 17.2716472,60.7054049 L17.2716472,60.7054049 Z" id="Shape" fill="#B60050"></path>
                    <path d="M36,31.5654242 C43.894235,31.5654242 50.293777,25.1658822 50.293777,17.2716472 C50.293777,9.37741214 43.894235,2.9778702 36,2.9778702 C28.105765,2.9778702 21.706223,9.37741214 21.706223,17.2716472 C21.706223,25.1658822 28.105765,31.5654242 36,31.5654242 L36,31.5654242 Z M36,30.3742761 C28.7636179,30.3742761 22.8973711,24.5080293 22.8973711,17.2716472 C22.8973711,10.0352651 28.7636179,4.16901828 36,4.16901828 C43.2363821,4.16901828 49.1026289,10.0352651 49.1026289,17.2716472 C49.1026289,24.5080293 43.2363821,30.3742761 36,30.3742761 L36,30.3742761 Z" id="Shape-Copy" fill="#B60050"></path>
                </g>
            </g>
        </g>
    </g>
</svg>