<?xml version="1.0" encoding="UTF-8" standalone="no"?>
<svg width="31px" height="21px" viewBox="0 0 31 21" version="1.1" xmlns="http://www.w3.org/2000/svg" xmlns:xlink="http://www.w3.org/1999/xlink" xmlns:sketch="http://www.bohemiancoding.com/sketch/ns">
    <!-- Generator: Sketch 3.3 (11970) - http://www.bohemiancoding.com/sketch -->
    <title>menu</title>
    <desc>Created with Sketch.</desc>
    <defs></defs>
    <g id="index.html" stroke="none" stroke-width="1" fill="none" fill-rule="evenodd" sketch:type="MSPage">
        <g id="Mobile-Portrait" sketch:type="MSArtboardGroup" transform="translate(-279.000000, -10.000000)" fill="#ED2C74">
            <g id="Group" sketch:type="MSLayerGroup" transform="translate(-27.000000, -147.000000)">
                <g id="menu" transform="translate(306.000000, 157.000000)" sketch:type="MSShapeGroup">
                    <path d="M2,5 L26,5 C27.104,5 28,4.104 28,3 C28,1.896 27.104,1 26,1 L2,1 C0.896,1 0,1.896 0,3 C0,4.104 0.896,5 2,5 L2,5 Z M26,9 L2,9 C0.896,9 0,9.896 0,11 C0,12.104 0.896,13 2,13 L26,13 C27.104,13 28,12.104 28,11 C28,9.896 27.104,9 26,9 L26,9 Z M26,17 L2,17 C0.896,17 0,17.896 0,19 C0,20.104 0.896,21 2,21 L26,21 C27.104,21 28,20.104 28,19 C28,17.896 27.104,17 26,17 L26,17 Z" id="Shape"></path>
                    <path d="M3,5 L27,5 C28.104,5 29,4.104 29,3 C29,1.896 28.104,1 27,1 L3,1 C1.896,1 1,1.896 1,3 C1,4.104 1.896,5 3,5 L3,5 Z M27,9 L3,9 C1.896,9 1,9.896 1,11 C1,12.104 1.896,13 3,13 L27,13 C28.104,13 29,12.104 29,11 C29,9.896 28.104,9 27,9 L27,9 Z M27,17 L3,17 C1.896,17 1,17.896 1,19 C1,20.104 1.896,21 3,21 L27,21 C28.104,21 29,20.104 29,19 C29,17.896 28.104,17 27,17 L27,17 Z" id="Shape"></path>
                    <path d="M4,5 L28,5 C29.104,5 30,4.104 30,3 C30,1.896 29.104,1 28,1 L4,1 C2.896,1 2,1.896 2,3 C2,4.104 2.896,5 4,5 L4,5 Z M28,9 L4,9 C2.896,9 2,9.896 2,11 C2,12.104 2.896,13 4,13 L28,13 C29.104,13 30,12.104 30,11 C30,9.896 29.104,9 28,9 L28,9 Z M28,17 L4,17 C2.896,17 2,17.896 2,19 C2,20.104 2.896,21 4,21 L28,21 C29.104,21 30,20.104 30,19 C30,17.896 29.104,17 28,17 L28,17 Z" id="Shape"></path>
                    <path d="M5,4.9 L29,4.9 C30.104,4.9 31,4.004 31,2.9 C31,1.796 30.104,0.9 29,0.9 L5,0.9 C3.896,0.9 3,1.796 3,2.9 C3,4.004 3.896,4.9 5,4.9 L5,4.9 Z M29,8.9 L5,8.9 C3.896,8.9 3,9.796 3,10.9 C3,12.004 3.896,12.9 5,12.9 L29,12.9 C30.104,12.9 31,12.004 31,10.9 C31,9.796 30.104,8.9 29,8.9 L29,8.9 Z M29,16.9 L5,16.9 C3.896,16.9 3,17.796 3,18.9 C3,20.004 3.896,20.9 5,20.9 L29,20.9 C30.104,20.9 31,20.004 31,18.9 C31,17.796 30.104,16.9 29,16.9 L29,16.9 Z" id="Shape"></path>
                </g>
            </g>
        </g>
    </g>
</svg>