<?xml version="1.0" encoding="UTF-8" standalone="no"?>
<svg width="80px" height="79px" viewBox="0 0 80 79" version="1.1" xmlns="http://www.w3.org/2000/svg" xmlns:xlink="http://www.w3.org/1999/xlink" xmlns:sketch="http://www.bohemiancoding.com/sketch/ns">
    <!-- Generator: Sketch 3.3 (11970) - http://www.bohemiancoding.com/sketch -->
    <title>taxi</title>
    <desc>Created with Sketch.</desc>
    <defs></defs>
    <g id="index.html" stroke="none" stroke-width="1" fill="none" fill-rule="evenodd" sketch:type="MSPage">
        <g id="Mobile-Portrait" sketch:type="MSArtboardGroup" transform="translate(-40.000000, -907.000000)">
            <g id="Group" sketch:type="MSLayerGroup" transform="translate(-27.000000, -147.000000)">
                <g id="taxi" transform="translate(67.000000, 1054.000000)" sketch:type="MSShapeGroup">
                    <path d="M23,72 L57,72 L57,72 L57,77.0081158 C57,78.1066027 57.8952581,79 58.999615,79 L65.000385,79 C66.1125667,79 67,78.1082031 67,77.0081158 L67,72 L77.0099126,72 C78.6616553,72 80,70.6533038 80,68.9920699 L80,49.0079301 C80,47.3431234 78.6612923,46 77.0099126,46 L71.925,46 L69.2242607,9.99014264 C69.0998154,8.33087158 67.6585563,7 66.0038017,7 L53,7 L53,0.997030139 C53,0.453036308 52.5508075,0 51.9967004,0 L28.0032996,0 C27.4512787,0 27,0.446385598 27,0.997030139 L27,7 L13.9961983,7 C12.3483118,7 10.8995951,8.33873246 10.7757393,9.99014264 L8.075,46 L8.075,46 L2.99008742,46 C1.33834472,46 0,47.3466962 0,49.0079301 L0,68.9920699 C0,70.6568766 1.33870774,72 2.99008742,72 L13,72 L13,77.0081158 C13,78.1066027 13.8952581,79 14.999615,79 L21.000385,79 C22.1125667,79 23,78.1082031 23,77.0081158 L23,72 Z" id="Rectangle-8" fill="#FFFFFF"></path>
                    <path d="M15.3088369,14.9874745 C15.4316723,13.3375379 16.8655901,12 18.5371862,12 L61.4628138,12 C63.1229465,12 64.567978,13.3328403 64.6911631,14.9874745 L67,46 L13,46 L15.3088369,14.9874745 Z" id="Rectangle-10-Copy" fill="#B60050"></path>
                    <ellipse id="Oval-19" fill="#B60050" cx="18.6732035" cy="59" rx="6" ry="6"></ellipse>
                    <ellipse id="Oval-19-Copy" fill="#B60050" cx="62" cy="59" rx="6" ry="6"></ellipse>
                </g>
            </g>
        </g>
    </g>
</svg>